<?xml version="1.0" encoding="UTF-8" standalone="no"?>
<!DOCTYPE svg PUBLIC "-//W3C//DTD SVG 1.1//EN"
 "http://www.w3.org/Graphics/SVG/1.1/DTD/svg11.dtd">
<!-- Generated by graphviz version 2.26.3 (20100126.1600)
 -->
<!-- Title: G Pages: 1 -->
<svg width="624pt" height="2186pt"
 viewBox="0.00 0.00 624.00 2186.00" xmlns="http://www.w3.org/2000/svg" xmlns:xlink="http://www.w3.org/1999/xlink">
<g id="graph1" class="graph" transform="scale(1 1) rotate(0) translate(4 2182)">
<title>G</title>
<polygon fill="white" stroke="white" points="-4,5 -4,-2182 621,-2182 621,5 -4,5"/>
<g id="graph2" class="cluster"><title>cluster_global</title>
<polyline fill="none" stroke="gray" points="230,-152 596,-152 "/>
<path fill="none" stroke="gray" d="M596,-152C602,-152 608,-158 608,-164"/>
<polyline fill="none" stroke="gray" points="608,-164 608,-2158 "/>
<path fill="none" stroke="gray" d="M608,-2158C608,-2164 602,-2170 596,-2170"/>
<polyline fill="none" stroke="gray" points="596,-2170 230,-2170 "/>
<path fill="none" stroke="gray" d="M230,-2170C224,-2170 218,-2164 218,-2158"/>
<polyline fill="none" stroke="gray" points="218,-2158 218,-164 "/>
<path fill="none" stroke="gray" d="M218,-164C218,-158 224,-152 230,-152"/>
<text text-anchor="middle" x="413" y="-2156.1" font-family="Times Roman,serif" font-size="11.00" fill="gray">global</text>
</g>
<!-- \\CongresosController -->
<g id="node2" class="node"><title>\\CongresosController</title>
<a xlink:href="Controller.CongresosController.html" xlink:title="CongresosController" target="_parent">
<polygon fill="none" stroke="black" points="586,-2140 442,-2140 442,-2104 586,-2104 586,-2140"/>
<text text-anchor="middle" x="514" y="-2119.1" font-family="Courier,monospace" font-size="11.00">CongresosController</text>
</a>
</g>
<!-- \\AppController -->
<g id="node17" class="node"><title>\\AppController</title>
<a xlink:href="Controller.AppController.html" xlink:title="AppController" target="_parent">
<polygon fill="none" stroke="black" points="330,-1762 226,-1762 226,-1726 330,-1726 330,-1762"/>
<text text-anchor="middle" x="278" y="-1741.1" font-family="Courier,monospace" font-size="11.00">AppController</text>
</a>
</g>
<!-- \\CongresosController&#45;&gt;\\AppController -->
<g id="edge3" class="edge"><title>\\CongresosController&#45;&gt;\\AppController</title>
<path fill="none" stroke="black" d="M441.463,-2104.59C436.619,-2101.85 432.061,-2098.68 428,-2095 328.862,-2005.28 292.818,-1838.95 281.996,-1772.5"/>
<polygon fill="none" stroke="black" points="285.414,-1771.71 280.416,-1762.37 278.497,-1772.78 285.414,-1771.71"/>
</g>
<!-- \\UsersController -->
<g id="node3" class="node"><title>\\UsersController</title>
<a xlink:href="Controller.UsersController.html" xlink:title="UsersController" target="_parent">
<polygon fill="none" stroke="black" points="573,-2086 455,-2086 455,-2050 573,-2050 573,-2086"/>
<text text-anchor="middle" x="514" y="-2065.1" font-family="Courier,monospace" font-size="11.00">UsersController</text>
</a>
</g>
<!-- \\UsersController&#45;&gt;\\AppController -->
<g id="edge5" class="edge"><title>\\UsersController&#45;&gt;\\AppController</title>
<path fill="none" stroke="black" d="M454.769,-2056.33C445.117,-2052.56 435.756,-2047.58 428,-2041 341.133,-1967.29 299.083,-1830.87 284.353,-1772.12"/>
<polygon fill="none" stroke="black" points="287.677,-1770.98 281.916,-1762.09 280.875,-1772.63 287.677,-1770.98"/>
</g>
<!-- \\ArchivosController -->
<g id="node4" class="node"><title>\\ArchivosController</title>
<a xlink:href="Controller.ArchivosController.html" xlink:title="ArchivosController" target="_parent">
<polygon fill="none" stroke="black" points="583,-2032 445,-2032 445,-1996 583,-1996 583,-2032"/>
<text text-anchor="middle" x="514" y="-2011.1" font-family="Courier,monospace" font-size="11.00">ArchivosController</text>
</a>
</g>
<!-- \\ArchivosController&#45;&gt;\\AppController -->
<g id="edge7" class="edge"><title>\\ArchivosController&#45;&gt;\\AppController</title>
<path fill="none" stroke="black" d="M444.628,-1997.19C438.713,-1994.31 433.065,-1990.94 428,-1987 353.308,-1928.91 306.615,-1822.38 287.687,-1771.92"/>
<polygon fill="none" stroke="black" points="290.898,-1770.51 284.17,-1762.32 284.325,-1772.91 290.898,-1770.51"/>
</g>
<!-- \\DerechosController -->
<g id="node5" class="node"><title>\\DerechosController</title>
<a xlink:href="Controller.DerechosController.html" xlink:title="DerechosController" target="_parent">
<polygon fill="none" stroke="black" points="583,-1978 445,-1978 445,-1942 583,-1942 583,-1978"/>
<text text-anchor="middle" x="514" y="-1957.1" font-family="Courier,monospace" font-size="11.00">DerechosController</text>
</a>
</g>
<!-- \\DerechosController&#45;&gt;\\AppController -->
<g id="edge9" class="edge"><title>\\DerechosController&#45;&gt;\\AppController</title>
<path fill="none" stroke="black" d="M444.661,-1942.34C438.805,-1939.64 433.159,-1936.55 428,-1933 364.901,-1889.64 315.445,-1811.86 292.312,-1770.91"/>
<polygon fill="none" stroke="black" points="295.305,-1769.09 287.392,-1762.04 289.184,-1772.48 295.305,-1769.09"/>
</g>
<!-- \\TicketmasterComponent -->
<g id="node6" class="node"><title>\\TicketmasterComponent</title>
<a xlink:href="Controller.Component.TicketmasterComponent.html" xlink:title="TicketmasterComponent" target="_parent">
<polygon fill="none" stroke="black" points="593,-520 435,-520 435,-484 593,-484 593,-520"/>
<text text-anchor="middle" x="514" y="-499.1" font-family="Courier,monospace" font-size="11.00">TicketmasterComponent</text>
</a>
</g>
<!-- \\Component -->
<g id="node46" class="node"><title>\\Component</title>
<ellipse fill="none" stroke="black" cx="278" cy="-126" rx="70.9184" ry="18.3848"/>
<text text-anchor="middle" x="278" y="-122.4" font-family="Times Roman,serif" font-size="14.00" fill="gray">\Component</text>
</g>
<!-- \\TicketmasterComponent&#45;&gt;\\Component -->
<g id="edge11" class="edge"><title>\\TicketmasterComponent&#45;&gt;\\Component</title>
<path fill="none" stroke="black" d="M438.292,-483.854C434.54,-481.281 431.066,-478.346 428,-475 327.474,-365.271 458.122,-256.244 356,-148 353.384,-145.227 350.448,-142.795 347.289,-140.662"/>
<polygon fill="none" stroke="black" points="348.903,-137.554 338.473,-135.688 345.463,-143.65 348.903,-137.554"/>
</g>
<!-- \\ArticulosController -->
<g id="node7" class="node"><title>\\ArticulosController</title>
<a xlink:href="Controller.ArticulosController.html" xlink:title="ArticulosController" target="_parent">
<polygon fill="none" stroke="black" points="586,-1924 442,-1924 442,-1888 586,-1888 586,-1924"/>
<text text-anchor="middle" x="514" y="-1903.1" font-family="Courier,monospace" font-size="11.00">ArticulosController</text>
</a>
</g>
<!-- \\ArticulosController&#45;&gt;\\AppController -->
<g id="edge13" class="edge"><title>\\ArticulosController&#45;&gt;\\AppController</title>
<path fill="none" stroke="black" d="M446.602,-1887.96C440.152,-1885.31 433.845,-1882.33 428,-1879 376.601,-1849.67 327.729,-1800.28 300.424,-1770.06"/>
<polygon fill="none" stroke="black" points="302.903,-1767.58 293.634,-1762.45 297.678,-1772.24 302.903,-1767.58"/>
</g>
<!-- \\PatentesController -->
<g id="node8" class="node"><title>\\PatentesController</title>
<a xlink:href="Controller.PatentesController.html" xlink:title="PatentesController" target="_parent">
<polygon fill="none" stroke="black" points="583,-1870 445,-1870 445,-1834 583,-1834 583,-1870"/>
<text text-anchor="middle" x="514" y="-1849.1" font-family="Courier,monospace" font-size="11.00">PatentesController</text>
</a>
</g>
<!-- \\PatentesController&#45;&gt;\\AppController -->
<g id="edge15" class="edge"><title>\\PatentesController&#45;&gt;\\AppController</title>
<path fill="none" stroke="black" d="M451.484,-1833.92C443.495,-1831.16 435.496,-1828.17 428,-1825 388.591,-1808.35 345.864,-1784.68 316.129,-1767.22"/>
<polygon fill="none" stroke="black" points="317.725,-1764.1 307.336,-1762.02 314.16,-1770.13 317.725,-1764.1"/>
</g>
<!-- \\CapitulosController -->
<g id="node9" class="node"><title>\\CapitulosController</title>
<a xlink:href="Controller.CapitulosController.html" xlink:title="CapitulosController" target="_parent">
<polygon fill="none" stroke="black" points="586,-1816 442,-1816 442,-1780 586,-1780 586,-1816"/>
<text text-anchor="middle" x="514" y="-1795.1" font-family="Courier,monospace" font-size="11.00">CapitulosController</text>
</a>
</g>
<!-- \\CapitulosController&#45;&gt;\\AppController -->
<g id="edge17" class="edge"><title>\\CapitulosController&#45;&gt;\\AppController</title>
<path fill="none" stroke="black" d="M441.267,-1781.36C408.881,-1773.95 371.134,-1765.31 340.098,-1758.21"/>
<polygon fill="none" stroke="black" points="340.801,-1754.78 330.272,-1755.96 339.239,-1761.6 340.801,-1754.78"/>
</g>
<!-- \\DashboardController -->
<g id="node10" class="node"><title>\\DashboardController</title>
<a xlink:href="Controller.DashboardController.html" xlink:title="DashboardController" target="_parent">
<polygon fill="none" stroke="black" points="586,-1762 442,-1762 442,-1726 586,-1726 586,-1762"/>
<text text-anchor="middle" x="514" y="-1741.1" font-family="Courier,monospace" font-size="11.00">DashboardController</text>
</a>
</g>
<!-- \\DashboardController&#45;&gt;\\AppController -->
<g id="edge19" class="edge"><title>\\DashboardController&#45;&gt;\\AppController</title>
<path fill="none" stroke="black" d="M441.267,-1744C409.022,-1744 371.461,-1744 340.501,-1744"/>
<polygon fill="none" stroke="black" points="340.272,-1740.5 330.272,-1744 340.272,-1747.5 340.272,-1740.5"/>
</g>
<!-- \\EscuelasController -->
<g id="node11" class="node"><title>\\EscuelasController</title>
<a xlink:href="Controller.EscuelasController.html" xlink:title="EscuelasController" target="_parent">
<polygon fill="none" stroke="black" points="583,-1708 445,-1708 445,-1672 583,-1672 583,-1708"/>
<text text-anchor="middle" x="514" y="-1687.1" font-family="Courier,monospace" font-size="11.00">EscuelasController</text>
</a>
</g>
<!-- \\EscuelasController&#45;&gt;\\AppController -->
<g id="edge21" class="edge"><title>\\EscuelasController&#45;&gt;\\AppController</title>
<path fill="none" stroke="black" d="M444.787,-1705.84C411.773,-1713.39 372.576,-1722.36 340.478,-1729.7"/>
<polygon fill="none" stroke="black" points="339.29,-1726.39 330.323,-1732.03 340.852,-1733.21 339.29,-1726.39"/>
</g>
<!-- \\ContenidosController -->
<g id="node12" class="node"><title>\\ContenidosController</title>
<a xlink:href="Controller.ContenidosController.html" xlink:title="ContenidosController" target="_parent">
<polygon fill="none" stroke="black" points="590,-1654 438,-1654 438,-1618 590,-1618 590,-1654"/>
<text text-anchor="middle" x="514" y="-1633.1" font-family="Courier,monospace" font-size="11.00">ContenidosController</text>
</a>
</g>
<!-- \\ContenidosController&#45;&gt;\\AppController -->
<g id="edge23" class="edge"><title>\\ContenidosController&#45;&gt;\\AppController</title>
<path fill="none" stroke="black" d="M451.484,-1654.08C443.495,-1656.84 435.496,-1659.83 428,-1663 388.591,-1679.65 345.864,-1703.32 316.129,-1720.78"/>
<polygon fill="none" stroke="black" points="314.16,-1717.87 307.336,-1725.98 317.725,-1723.9 314.16,-1717.87"/>
</g>
<!-- \\CursosController -->
<g id="node13" class="node"><title>\\CursosController</title>
<a xlink:href="Controller.CursosController.html" xlink:title="CursosController" target="_parent">
<polygon fill="none" stroke="black" points="576,-1600 452,-1600 452,-1564 576,-1564 576,-1600"/>
<text text-anchor="middle" x="514" y="-1579.1" font-family="Courier,monospace" font-size="11.00">CursosController</text>
</a>
</g>
<!-- \\CursosController&#45;&gt;\\AppController -->
<g id="edge25" class="edge"><title>\\CursosController&#45;&gt;\\AppController</title>
<path fill="none" stroke="black" d="M451.121,-1598.25C443.111,-1601.32 435.204,-1604.89 428,-1609 376.601,-1638.33 327.729,-1687.72 300.424,-1717.94"/>
<polygon fill="none" stroke="black" points="297.678,-1715.76 293.634,-1725.55 302.903,-1720.42 297.678,-1715.76"/>
</g>
<!-- \\AppError -->
<g id="node14" class="node"><title>\\AppError</title>
<a xlink:href="Controller.AppError.html" xlink:title="AppError" target="_parent">
<polygon fill="none" stroke="black" points="549,-466 479,-466 479,-430 549,-430 549,-466"/>
<text text-anchor="middle" x="514" y="-445.1" font-family="Courier,monospace" font-size="11.00">AppError</text>
</a>
</g>
<!-- \\ErrorHandler -->
<g id="node55" class="node"><title>\\ErrorHandler</title>
<ellipse fill="none" stroke="black" cx="278" cy="-72" rx="77.7817" ry="18.3848"/>
<text text-anchor="middle" x="278" y="-68.4" font-family="Times Roman,serif" font-size="14.00" fill="gray">\ErrorHandler</text>
</g>
<!-- \\AppError&#45;&gt;\\ErrorHandler -->
<g id="edge27" class="edge"><title>\\AppError&#45;&gt;\\ErrorHandler</title>
<path fill="none" stroke="black" d="M478.166,-445.024C460.727,-441.735 440.814,-434.941 428,-421 328.764,-313.033 453.658,-208.397 356,-99 352.714,-95.3186 348.9,-92.139 344.76,-89.393"/>
<polygon fill="none" stroke="black" points="346.294,-86.2387 335.87,-84.3431 342.836,-92.3254 346.294,-86.2387"/>
</g>
<!-- \\DepartamentosController -->
<g id="node15" class="node"><title>\\DepartamentosController</title>
<a xlink:href="Controller.DepartamentosController.html" xlink:title="DepartamentosController" target="_parent">
<polygon fill="none" stroke="black" points="600,-1546 428,-1546 428,-1510 600,-1510 600,-1546"/>
<text text-anchor="middle" x="514" y="-1525.1" font-family="Courier,monospace" font-size="11.00">DepartamentosController</text>
</a>
</g>
<!-- \\DepartamentosController&#45;&gt;\\AppController -->
<g id="edge29" class="edge"><title>\\DepartamentosController&#45;&gt;\\AppController</title>
<path fill="none" stroke="black" d="M443.784,-1546.07C438.242,-1548.67 432.901,-1551.63 428,-1555 364.901,-1598.36 315.445,-1676.14 292.312,-1717.09"/>
<polygon fill="none" stroke="black" points="289.184,-1715.52 287.392,-1725.96 295.305,-1718.91 289.184,-1715.52"/>
</g>
<!-- \\TesisController -->
<g id="node16" class="node"><title>\\TesisController</title>
<a xlink:href="Controller.TesisController.html" xlink:title="TesisController" target="_parent">
<polygon fill="none" stroke="black" points="573,-1492 455,-1492 455,-1456 573,-1456 573,-1492"/>
<text text-anchor="middle" x="514" y="-1471.1" font-family="Courier,monospace" font-size="11.00">TesisController</text>
</a>
</g>
<!-- \\TesisController&#45;&gt;\\AppController -->
<g id="edge31" class="edge"><title>\\TesisController&#45;&gt;\\AppController</title>
<path fill="none" stroke="black" d="M454.779,-1486.41C445.234,-1490.09 435.906,-1494.85 428,-1501 353.308,-1559.09 306.615,-1665.62 287.687,-1716.08"/>
<polygon fill="none" stroke="black" points="284.325,-1715.09 284.17,-1725.68 290.898,-1717.49 284.325,-1715.09"/>
</g>
<!-- \\Controller -->
<g id="node59" class="node"><title>\\Controller</title>
<ellipse fill="none" stroke="black" cx="64" cy="-1744" rx="63.1385" ry="18.3848"/>
<text text-anchor="middle" x="64" y="-1740.4" font-family="Times Roman,serif" font-size="14.00" fill="gray">\Controller</text>
</g>
<!-- \\AppController&#45;&gt;\\Controller -->
<g id="edge33" class="edge"><title>\\AppController&#45;&gt;\\Controller</title>
<path fill="none" stroke="black" d="M225.923,-1744C199.473,-1744 166.879,-1744 137.884,-1744"/>
<polygon fill="none" stroke="black" points="137.794,-1740.5 127.794,-1744 137.794,-1747.5 137.794,-1740.5"/>
</g>
<!-- \\LibrosController -->
<g id="node18" class="node"><title>\\LibrosController</title>
<a xlink:href="Controller.LibrosController.html" xlink:title="LibrosController" target="_parent">
<polygon fill="none" stroke="black" points="576,-1438 452,-1438 452,-1402 576,-1402 576,-1438"/>
<text text-anchor="middle" x="514" y="-1417.1" font-family="Courier,monospace" font-size="11.00">LibrosController</text>
</a>
</g>
<!-- \\LibrosController&#45;&gt;\\AppController -->
<g id="edge35" class="edge"><title>\\LibrosController&#45;&gt;\\AppController</title>
<path fill="none" stroke="black" d="M451.221,-1433.12C442.837,-1436.69 434.801,-1441.23 428,-1447 341.133,-1520.71 299.083,-1657.13 284.353,-1715.88"/>
<polygon fill="none" stroke="black" points="280.875,-1715.37 281.916,-1725.91 287.677,-1717.02 280.875,-1715.37"/>
</g>
<!-- \\FeedbackController -->
<g id="node19" class="node"><title>\\FeedbackController</title>
<a xlink:href="Controller.FeedbackController.html" xlink:title="FeedbackController" target="_parent">
<polygon fill="none" stroke="black" points="583,-1384 445,-1384 445,-1348 583,-1348 583,-1384"/>
<text text-anchor="middle" x="514" y="-1363.1" font-family="Courier,monospace" font-size="11.00">FeedbackController</text>
</a>
</g>
<!-- \\FeedbackController&#45;&gt;\\AppController -->
<g id="edge37" class="edge"><title>\\FeedbackController&#45;&gt;\\AppController</title>
<path fill="none" stroke="black" d="M444.826,-1381.59C438.729,-1384.72 432.989,-1388.48 428,-1393 328.862,-1482.72 292.818,-1649.05 281.996,-1715.5"/>
<polygon fill="none" stroke="black" points="278.497,-1715.22 280.416,-1725.63 285.414,-1716.29 278.497,-1715.22"/>
</g>
<!-- \\Patente -->
<g id="node20" class="node"><title>\\Patente</title>
<a xlink:href="Model.Patente.html" xlink:title="Patente" target="_parent">
<polygon fill="none" stroke="black" points="546,-1330 482,-1330 482,-1294 546,-1294 546,-1330"/>
<text text-anchor="middle" x="514" y="-1309.1" font-family="Courier,monospace" font-size="11.00">Patente</text>
</a>
</g>
<!-- \\AppModel -->
<g id="node30" class="node"><title>\\AppModel</title>
<a xlink:href="Model.AppModel.html" xlink:title="AppModel" target="_parent">
<polygon fill="none" stroke="black" points="313,-952 243,-952 243,-916 313,-916 313,-952"/>
<text text-anchor="middle" x="278" y="-931.1" font-family="Courier,monospace" font-size="11.00">AppModel</text>
</a>
</g>
<!-- \\Patente&#45;&gt;\\AppModel -->
<g id="edge39" class="edge"><title>\\Patente&#45;&gt;\\AppModel</title>
<path fill="none" stroke="black" d="M481.721,-1308.5C464.016,-1305.09 442.736,-1298.34 428,-1285 328.862,-1195.28 292.818,-1028.95 281.996,-962.503"/>
<polygon fill="none" stroke="black" points="285.414,-961.707 280.416,-952.365 278.497,-962.785 285.414,-961.707"/>
</g>
<!-- \\Ticket -->
<g id="node21" class="node"><title>\\Ticket</title>
<a xlink:href="Model.Ticket.html" xlink:title="Ticket" target="_parent">
<polygon fill="none" stroke="black" points="542,-1276 486,-1276 486,-1240 542,-1240 542,-1276"/>
<text text-anchor="middle" x="514" y="-1255.1" font-family="Courier,monospace" font-size="11.00">Ticket</text>
</a>
</g>
<!-- \\Ticket&#45;&gt;\\AppModel -->
<g id="edge41" class="edge"><title>\\Ticket&#45;&gt;\\AppModel</title>
<path fill="none" stroke="black" d="M485.32,-1254.77C467.143,-1251.43 444.108,-1244.67 428,-1231 341.133,-1157.29 299.083,-1020.87 284.353,-962.121"/>
<polygon fill="none" stroke="black" points="287.677,-960.978 281.916,-952.087 280.875,-962.631 287.677,-960.978"/>
</g>
<!-- \\Articulo -->
<g id="node22" class="node"><title>\\Articulo</title>
<a xlink:href="Model.Articulo.html" xlink:title="Articulo" target="_parent">
<polygon fill="none" stroke="black" points="549,-1222 479,-1222 479,-1186 549,-1186 549,-1222"/>
<text text-anchor="middle" x="514" y="-1201.1" font-family="Courier,monospace" font-size="11.00">Articulo</text>
</a>
</g>
<!-- \\Articulo&#45;&gt;\\AppModel -->
<g id="edge43" class="edge"><title>\\Articulo&#45;&gt;\\AppModel</title>
<path fill="none" stroke="black" d="M478.254,-1198.71C461.659,-1194.85 442.453,-1188.24 428,-1177 353.308,-1118.91 306.615,-1012.38 287.687,-961.917"/>
<polygon fill="none" stroke="black" points="290.898,-960.505 284.17,-952.32 284.325,-962.914 290.898,-960.505"/>
</g>
<!-- \\Capitulo -->
<g id="node23" class="node"><title>\\Capitulo</title>
<a xlink:href="Model.Capitulo.html" xlink:title="Capitulo" target="_parent">
<polygon fill="none" stroke="black" points="549,-1168 479,-1168 479,-1132 549,-1132 549,-1168"/>
<text text-anchor="middle" x="514" y="-1147.1" font-family="Courier,monospace" font-size="11.00">Capitulo</text>
</a>
</g>
<!-- \\Capitulo&#45;&gt;\\AppModel -->
<g id="edge45" class="edge"><title>\\Capitulo&#45;&gt;\\AppModel</title>
<path fill="none" stroke="black" d="M478.394,-1143.83C462.021,-1139.79 442.961,-1133.28 428,-1123 364.901,-1079.64 315.445,-1001.86 292.312,-960.908"/>
<polygon fill="none" stroke="black" points="295.305,-959.087 287.392,-952.042 289.184,-962.484 295.305,-959.087"/>
</g>
<!-- \\User -->
<g id="node24" class="node"><title>\\User</title>
<a xlink:href="Model.User.html" xlink:title="User" target="_parent">
<polygon fill="none" stroke="black" points="541,-1114 487,-1114 487,-1078 541,-1078 541,-1114"/>
<text text-anchor="middle" x="514" y="-1093.1" font-family="Courier,monospace" font-size="11.00">User</text>
</a>
</g>
<!-- \\User&#45;&gt;\\AppModel -->
<g id="edge47" class="edge"><title>\\User&#45;&gt;\\AppModel</title>
<path fill="none" stroke="black" d="M486.822,-1090.62C469.262,-1086.41 446.349,-1079.47 428,-1069 376.601,-1039.67 327.729,-990.276 300.424,-960.061"/>
<polygon fill="none" stroke="black" points="302.903,-957.581 293.634,-952.448 297.678,-962.241 302.903,-957.581"/>
</g>
<!-- \\Libro -->
<g id="node25" class="node"><title>\\Libro</title>
<a xlink:href="Model.Libro.html" xlink:title="Libro" target="_parent">
<polygon fill="none" stroke="black" points="541,-1060 487,-1060 487,-1024 541,-1024 541,-1060"/>
<text text-anchor="middle" x="514" y="-1039.1" font-family="Courier,monospace" font-size="11.00">Libro</text>
</a>
</g>
<!-- \\Libro&#45;&gt;\\AppModel -->
<g id="edge49" class="edge"><title>\\Libro&#45;&gt;\\AppModel</title>
<path fill="none" stroke="black" d="M486.797,-1034.9C469.637,-1030.07 447.173,-1023.1 428,-1015 388.591,-998.354 345.864,-974.682 316.129,-957.225"/>
<polygon fill="none" stroke="black" points="317.725,-954.102 307.336,-952.022 314.16,-960.127 317.725,-954.102"/>
</g>
<!-- \\Departamento -->
<g id="node26" class="node"><title>\\Departamento</title>
<a xlink:href="Model.Departamento.html" xlink:title="Departamento" target="_parent">
<polygon fill="none" stroke="black" points="563,-1006 465,-1006 465,-970 563,-970 563,-1006"/>
<text text-anchor="middle" x="514" y="-985.1" font-family="Courier,monospace" font-size="11.00">Departamento</text>
</a>
</g>
<!-- \\Departamento&#45;&gt;\\AppModel -->
<g id="edge51" class="edge"><title>\\Departamento&#45;&gt;\\AppModel</title>
<path fill="none" stroke="black" d="M464.814,-976.746C423.22,-967.228 364.091,-953.699 323.56,-944.425"/>
<polygon fill="none" stroke="black" points="324.207,-940.982 313.678,-942.164 322.645,-947.806 324.207,-940.982"/>
</g>
<!-- \\Archivo -->
<g id="node27" class="node"><title>\\Archivo</title>
<a xlink:href="Model.Archivo.html" xlink:title="Archivo" target="_parent">
<polygon fill="none" stroke="black" points="546,-952 482,-952 482,-916 546,-916 546,-952"/>
<text text-anchor="middle" x="514" y="-931.1" font-family="Courier,monospace" font-size="11.00">Archivo</text>
</a>
</g>
<!-- \\Archivo&#45;&gt;\\AppModel -->
<g id="edge53" class="edge"><title>\\Archivo&#45;&gt;\\AppModel</title>
<path fill="none" stroke="black" d="M481.68,-934C440.838,-934 370.284,-934 323.875,-934"/>
<polygon fill="none" stroke="black" points="323.783,-930.5 313.783,-934 323.783,-937.5 323.783,-930.5"/>
</g>
<!-- \\Derecho -->
<g id="node28" class="node"><title>\\Derecho</title>
<a xlink:href="Model.Derecho.html" xlink:title="Derecho" target="_parent">
<polygon fill="none" stroke="black" points="546,-898 482,-898 482,-862 546,-862 546,-898"/>
<text text-anchor="middle" x="514" y="-877.1" font-family="Courier,monospace" font-size="11.00">Derecho</text>
</a>
</g>
<!-- \\Derecho&#45;&gt;\\AppModel -->
<g id="edge55" class="edge"><title>\\Derecho&#45;&gt;\\AppModel</title>
<path fill="none" stroke="black" d="M481.68,-887.395C440.752,-896.76 369.987,-912.952 323.583,-923.57"/>
<polygon fill="none" stroke="black" points="322.751,-920.17 313.783,-925.812 324.312,-926.994 322.751,-920.17"/>
</g>
<!-- \\Contenido -->
<g id="node29" class="node"><title>\\Contenido</title>
<a xlink:href="Model.Contenido.html" xlink:title="Contenido" target="_parent">
<polygon fill="none" stroke="black" points="552,-844 476,-844 476,-808 552,-808 552,-844"/>
<text text-anchor="middle" x="514" y="-823.1" font-family="Courier,monospace" font-size="11.00">Contenido</text>
</a>
</g>
<!-- \\Contenido&#45;&gt;\\AppModel -->
<g id="edge57" class="edge"><title>\\Contenido&#45;&gt;\\AppModel</title>
<path fill="none" stroke="black" d="M475.485,-834.704C460.173,-839.018 442.732,-845.041 428,-853 391.601,-872.665 392.683,-892.87 356,-912 345.971,-917.23 334.549,-921.345 323.598,-924.529"/>
<polygon fill="none" stroke="black" points="322.467,-921.209 313.726,-927.197 324.293,-927.967 322.467,-921.209"/>
</g>
<!-- \\Model -->
<g id="node73" class="node"><title>\\Model</title>
<ellipse fill="none" stroke="black" cx="64" cy="-934" rx="43.8406" ry="18.3848"/>
<text text-anchor="middle" x="64" y="-930.4" font-family="Times Roman,serif" font-size="14.00" fill="gray">\Model</text>
</g>
<!-- \\AppModel&#45;&gt;\\Model -->
<g id="edge59" class="edge"><title>\\AppModel&#45;&gt;\\Model</title>
<path fill="none" stroke="black" d="M242.181,-934C208.321,-934 157.057,-934 118.196,-934"/>
<polygon fill="none" stroke="black" points="118.096,-930.5 108.096,-934 118.096,-937.5 118.096,-930.5"/>
</g>
<!-- \\Congreso -->
<g id="node31" class="node"><title>\\Congreso</title>
<a xlink:href="Model.Congreso.html" xlink:title="Congreso" target="_parent">
<polygon fill="none" stroke="black" points="549,-790 479,-790 479,-754 549,-754 549,-790"/>
<text text-anchor="middle" x="514" y="-769.1" font-family="Courier,monospace" font-size="11.00">Congreso</text>
</a>
</g>
<!-- \\Congreso&#45;&gt;\\AppModel -->
<g id="edge61" class="edge"><title>\\Congreso&#45;&gt;\\AppModel</title>
<path fill="none" stroke="black" d="M478.324,-777.386C461.745,-781.267 442.533,-787.863 428,-799 380.732,-835.222 403.794,-876.475 356,-912 346.567,-919.011 334.986,-923.789 323.662,-927.045"/>
<polygon fill="none" stroke="black" points="322.673,-923.685 313.838,-929.532 324.391,-930.471 322.673,-923.685"/>
</g>
<!-- \\Feedback -->
<g id="node32" class="node"><title>\\Feedback</title>
<a xlink:href="Model.Feedback.html" xlink:title="Feedback" target="_parent">
<polygon fill="none" stroke="black" points="549,-736 479,-736 479,-700 549,-700 549,-736"/>
<text text-anchor="middle" x="514" y="-715.1" font-family="Courier,monospace" font-size="11.00">Feedback</text>
</a>
</g>
<!-- \\Feedback&#45;&gt;\\AppModel -->
<g id="edge63" class="edge"><title>\\Feedback&#45;&gt;\\AppModel</title>
<path fill="none" stroke="black" d="M478.353,-722.204C461.383,-725.815 441.827,-732.526 428,-745 367.985,-799.14 416.802,-858.745 356,-912 346.995,-919.887 335.361,-924.962 323.839,-928.222"/>
<polygon fill="none" stroke="black" points="322.71,-924.894 313.812,-930.645 324.354,-931.698 322.71,-924.894"/>
</g>
<!-- \\Tesis -->
<g id="node33" class="node"><title>\\Tesis</title>
<a xlink:href="Model.Tesis.html" xlink:title="Tesis" target="_parent">
<polygon fill="none" stroke="black" points="541,-682 487,-682 487,-646 541,-646 541,-682"/>
<text text-anchor="middle" x="514" y="-661.1" font-family="Courier,monospace" font-size="11.00">Tesis</text>
</a>
</g>
<!-- \\Tesis&#45;&gt;\\AppModel -->
<g id="edge65" class="edge"><title>\\Tesis&#45;&gt;\\AppModel</title>
<path fill="none" stroke="black" d="M486.623,-666.116C467.835,-668.961 443.575,-675.592 428,-691 354.562,-763.653 430.494,-840.43 356,-912 347.201,-920.453 335.413,-925.704 323.671,-928.952"/>
<polygon fill="none" stroke="black" points="322.828,-925.554 313.885,-931.235 324.418,-932.371 322.828,-925.554"/>
</g>
<!-- \\Escuela -->
<g id="node34" class="node"><title>\\Escuela</title>
<a xlink:href="Model.Escuela.html" xlink:title="Escuela" target="_parent">
<polygon fill="none" stroke="black" points="546,-628 482,-628 482,-592 546,-592 546,-628"/>
<text text-anchor="middle" x="514" y="-607.1" font-family="Courier,monospace" font-size="11.00">Escuela</text>
</a>
</g>
<!-- \\Escuela&#45;&gt;\\AppModel -->
<g id="edge67" class="edge"><title>\\Escuela&#45;&gt;\\AppModel</title>
<path fill="none" stroke="black" d="M481.787,-612.552C463.655,-615.644 441.927,-622.386 428,-637 340.839,-728.461 444.492,-821.825 356,-912 347.377,-920.787 335.536,-926.137 323.685,-929.374"/>
<polygon fill="none" stroke="black" points="322.771,-925.992 313.797,-931.624 324.325,-932.818 322.771,-925.992"/>
</g>
<!-- \\Curso -->
<g id="node35" class="node"><title>\\Curso</title>
<a xlink:href="Model.Curso.html" xlink:title="Curso" target="_parent">
<polygon fill="none" stroke="black" points="541,-574 487,-574 487,-538 541,-538 541,-574"/>
<text text-anchor="middle" x="514" y="-553.1" font-family="Courier,monospace" font-size="11.00">Curso</text>
</a>
</g>
<!-- \\Curso&#45;&gt;\\AppModel -->
<g id="edge69" class="edge"><title>\\Curso&#45;&gt;\\AppModel</title>
<path fill="none" stroke="black" d="M486.951,-557.541C467.82,-560.091 443.001,-566.605 428,-583 326.958,-693.433 458.649,-803.059 356,-912 347.482,-921.04 335.563,-926.462 323.602,-929.685"/>
<polygon fill="none" stroke="black" points="322.619,-926.318 313.618,-931.907 324.139,-933.151 322.619,-926.318"/>
</g>
<!-- \\DATABASE_CONFIG -->
<g id="node36" class="node"><title>\\DATABASE_CONFIG</title>
<a xlink:href="Config.database.html" xlink:title="DATABASE_CONFIG" target="_parent">
<polygon fill="none" stroke="black" points="573,-412 455,-412 455,-376 573,-376 573,-412"/>
<text text-anchor="middle" x="514" y="-391.1" font-family="Courier,monospace" font-size="11.00">DATABASE_CONFIG</text>
</a>
</g>
<!-- \\i18nSchema -->
<g id="node37" class="node"><title>\\i18nSchema</title>
<a xlink:href="Config.Schema.i18n.html" xlink:title="i18nSchema" target="_parent">
<polygon fill="none" stroke="black" points="556,-358 472,-358 472,-322 556,-322 556,-358"/>
<text text-anchor="middle" x="514" y="-337.1" font-family="Courier,monospace" font-size="11.00">i18nSchema</text>
</a>
</g>
<!-- \\CakeSchema -->
<g id="node80" class="node"><title>\\CakeSchema</title>
<ellipse fill="none" stroke="black" cx="278" cy="-18" rx="77.0746" ry="18.3848"/>
<text text-anchor="middle" x="278" y="-14.4" font-family="Times Roman,serif" font-size="14.00" fill="gray">\CakeSchema</text>
</g>
<!-- \\i18nSchema&#45;&gt;\\CakeSchema -->
<g id="edge71" class="edge"><title>\\i18nSchema&#45;&gt;\\CakeSchema</title>
<path fill="none" stroke="black" d="M471.849,-335.384C456.2,-331.659 439.482,-324.972 428,-313 342.629,-223.988 440.07,-135.242 356,-45 352.429,-41.1664 348.286,-37.8771 343.809,-35.0548"/>
<polygon fill="none" stroke="black" points="345.305,-31.8845 334.848,-30.1827 341.962,-38.0343 345.305,-31.8845"/>
</g>
<!-- \\SessionsSchema -->
<g id="node38" class="node"><title>\\SessionsSchema</title>
<a xlink:href="Config.Schema.sessions.html" xlink:title="SessionsSchema" target="_parent">
<polygon fill="none" stroke="black" points="569,-304 459,-304 459,-268 569,-268 569,-304"/>
<text text-anchor="middle" x="514" y="-283.1" font-family="Courier,monospace" font-size="11.00">SessionsSchema</text>
</a>
</g>
<!-- \\SessionsSchema&#45;&gt;\\CakeSchema -->
<g id="edge73" class="edge"><title>\\SessionsSchema&#45;&gt;\\CakeSchema</title>
<path fill="none" stroke="black" d="M458.391,-276.913C447.236,-272.933 436.383,-267.214 428,-259 356.324,-188.767 426.649,-116.266 356,-45 352.311,-41.2791 348.085,-38.0703 343.55,-35.3032"/>
<polygon fill="none" stroke="black" points="344.984,-32.1017 334.51,-30.508 341.704,-38.2857 344.984,-32.1017"/>
</g>
<!-- \\DbAclSchema -->
<g id="node39" class="node"><title>\\DbAclSchema</title>
<a xlink:href="Config.Schema.db_acl.html" xlink:title="DbAclSchema" target="_parent">
<polygon fill="none" stroke="black" points="559,-250 469,-250 469,-214 559,-214 559,-250"/>
<text text-anchor="middle" x="514" y="-229.1" font-family="Courier,monospace" font-size="11.00">DbAclSchema</text>
</a>
</g>
<!-- \\DbAclSchema&#45;&gt;\\CakeSchema -->
<g id="edge75" class="edge"><title>\\DbAclSchema&#45;&gt;\\CakeSchema</title>
<path fill="none" stroke="black" d="M468.376,-225.232C454.136,-221.265 439.234,-214.974 428,-205 369.688,-153.226 413.554,-97.6147 356,-45 351.902,-41.2533 347.257,-38.0223 342.325,-35.2366"/>
<polygon fill="none" stroke="black" points="343.705,-32.0139 333.193,-30.6882 340.584,-38.2797 343.705,-32.0139"/>
</g>
<!-- \\EmailConfig -->
<g id="node40" class="node"><title>\\EmailConfig</title>
<a xlink:href="Config.email.html" xlink:title="EmailConfig" target="_parent">
<polygon fill="none" stroke="black" points="559,-196 469,-196 469,-160 559,-160 559,-196"/>
<text text-anchor="middle" x="514" y="-175.1" font-family="Courier,monospace" font-size="11.00">EmailConfig</text>
</a>
</g>
</g>
</svg>
